<svg xmlns:dc="http://purl.org/dc/elements/1.1/" xmlns:cc="http://creativecommons.org/ns#" xmlns:rdf="http://www.w3.org/1999/02/22-rdf-syntax-ns#" xmlns:svg="http://www.w3.org/2000/svg" xmlns="http://www.w3.org/2000/svg" viewBox="0 0 50 50" preserveAspectRatio="xMidYMid meet"><metadata><rdf:RDF><cc:Work><dc:format>image/svg+xml</dc:format><dc:type rdf:resource="http://purl.org/dc/dcmitype/StillImage"/><dc:title>Jdenticon</dc:title><dc:creator><cc:Agent><dc:title>Daniel Mester Pirttijärvi</dc:title></cc:Agent></dc:creator><dc:source>https://github.com/dmester/jdenticon</dc:source><cc:license rdf:resource="https://github.com/dmester/jdenticon/blob/master/LICENSE"/></cc:Work></rdf:RDF></metadata><mask id="avatarsRadiusMask"><rect width="50" height="50" rx="0" ry="0" x="0" y="0" fill="#fff"/></mask><g mask="url(#avatarsRadiusMask)"><path fill="#e8bac0" d="M19 1L25 7L19 13L13 7ZM37 7L31 13L25 7L31 1ZM31 49L25 43L31 37L37 43ZM13 43L19 37L25 43L19 49ZM7 13L13 19L7 25L1 19ZM49 19L43 25L37 19L43 13ZM43 37L37 31L43 25L49 31ZM1 31L7 25L13 31L7 37Z"/><path fill="#545454" d="M1 1L13 1L13 13ZM49 1L49 13L37 13ZM49 49L37 49L37 37ZM1 49L1 37L13 37Z"/><path fill="#d17581" d="M17.8 25a7.2,7.2 0 1,1 14.4,0a7.2,7.2 0 1,1 -14.4,0"/></g></svg>