<svg xmlns:dc="http://purl.org/dc/elements/1.1/" xmlns:cc="http://creativecommons.org/ns#" xmlns:rdf="http://www.w3.org/1999/02/22-rdf-syntax-ns#" xmlns:svg="http://www.w3.org/2000/svg" xmlns="http://www.w3.org/2000/svg" viewBox="0 0 50 50" preserveAspectRatio="xMidYMid meet"><metadata><rdf:RDF><cc:Work><dc:format>image/svg+xml</dc:format><dc:type rdf:resource="http://purl.org/dc/dcmitype/StillImage"/><dc:title>Jdenticon</dc:title><dc:creator><cc:Agent><dc:title>Daniel Mester Pirttijärvi</dc:title></cc:Agent></dc:creator><dc:source>https://github.com/dmester/jdenticon</dc:source><cc:license rdf:resource="https://github.com/dmester/jdenticon/blob/master/LICENSE"/></cc:Work></rdf:RDF></metadata><mask id="avatarsRadiusMask"><rect width="50" height="50" rx="0" ry="0" x="0" y="0" fill="#fff"/></mask><g mask="url(#avatarsRadiusMask)"><path fill="#4c4c4c" d="M25 7L19 13L13 7L19 1ZM31 13L25 7L31 1L37 7ZM25 43L31 37L37 43L31 49ZM19 37L25 43L19 49L13 43ZM13 19L7 25L1 19L7 13ZM43 25L37 19L43 13L49 19ZM37 31L43 25L49 31L43 37ZM7 25L13 31L7 37L1 31Z"/><path fill="#e5e3b2" d="M13 1L13 13L7 13ZM49 13L37 13L37 7ZM37 49L37 37L43 37ZM1 37L13 37L13 43Z"/><path fill="#ccc866" d="M25 13L25 22L19 13ZM37 25L28 25L37 19ZM25 37L25 28L31 37ZM13 25L22 25L13 31Z"/></g></svg>